<svg width="48" height="48" viewBox="0 0 48 48" fill="none" xmlns="http://www.w3.org/2000/svg">
<g clip-path="url(#clip0_149_12)">
<path d="M43.5 22.5H36.0919C37.113 20.4419 37.5919 18.1572 37.4834 15.8623C37.3749 13.5674 36.6825 11.3381 35.4717 9.38552C34.2609 7.43295 32.5718 5.82169 30.5644 4.70428C28.5569 3.58686 26.2975 3.00026 24 3C23.6022 3 23.2206 3.15804 22.9393 3.43934C22.658 3.72064 22.5 4.10218 22.5 4.5V11.9081C20.4419 10.887 18.1572 10.4081 15.8623 10.5166C13.5674 10.6251 11.3381 11.3175 9.38552 12.5283C7.43295 13.7391 5.82169 15.4282 4.70428 17.4356C3.58686 19.4431 3.00026 21.7025 3 24C3 24.3978 3.15804 24.7794 3.43934 25.0607C3.72064 25.342 4.10218 25.5 4.5 25.5H11.9081C10.887 27.5581 10.4081 29.8428 10.5166 32.1377C10.6251 34.4326 11.3175 36.6619 12.5283 38.6145C13.7391 40.5671 15.4282 42.1783 17.4356 43.2957C19.4431 44.4131 21.7025 44.9997 24 45C24.3978 45 24.7794 44.842 25.0607 44.5607C25.342 44.2794 25.5 43.8978 25.5 43.5V36.0919C27.5581 37.113 29.8428 37.5919 32.1377 37.4834C34.4326 37.3749 36.6619 36.6825 38.6145 35.4717C40.5671 34.2609 42.1783 32.5718 43.2957 30.5644C44.4131 28.5569 44.9997 26.2975 45 24C45 23.6022 44.842 23.2206 44.5607 22.9393C44.2794 22.658 43.8978 22.5 43.5 22.5ZM16.5 13.5C18.6458 13.4892 20.7421 14.1443 22.5 15.375V22.5H6.10687C6.47092 20.0023 7.72111 17.7189 9.62918 16.0666C11.5373 14.4143 13.9759 13.5033 16.5 13.5ZM31.5 34.5C29.3542 34.5108 27.2579 33.8557 25.5 32.625V25.5H41.8931C41.5291 27.9977 40.2789 30.2811 38.3708 31.9334C36.4627 33.5857 34.0241 34.4967 31.5 34.5Z" fill="#6D54CF"/>
</g>
<defs>
<clipPath id="clip0_149_12">
<rect width="48" height="48" fill="white"/>
</clipPath>
</defs>
</svg>
